<svg width="36" height="36" viewBox="0 0 36 36" fill="none" xmlns="http://www.w3.org/2000/svg">
<path d="M36 18.1168C36.013 28.0346 27.9813 36 17.9773 36C8.06418 36 0.0194978 27.9568 3.48214e-05 18.0259C-0.0194281 8.16649 8.12257 0 17.9773 0C28.0072 0 35.987 8.0173 36 18.1168ZM18.0033 26.1859C22.5835 26.1924 26.2036 22.5859 26.2036 18.013C26.2036 13.4919 22.4797 9.78811 17.9708 9.83351C13.5398 9.87243 9.85477 13.5503 9.82233 17.9546C9.79638 22.4627 13.4879 26.1859 18.0033 26.1924V26.1859Z" fill="url(#paint0_linear_1358_675)"/>
<defs>
<linearGradient id="paint0_linear_1358_675" x1="3.48214e-05" y1="18" x2="36" y2="18" gradientUnits="userSpaceOnUse">
<stop stop-color="#FDBE23"/>
<stop offset="1" stop-color="#EA4332"/>
</linearGradient>
</defs>
</svg>
