<svg width="109" height="84" viewBox="0 0 109 84" fill="none" xmlns="http://www.w3.org/2000/svg">
<path d="M10.0454 66.9177V68.0943H7.0244V78H5.5775V68.0943H2.5406V66.9177H10.0454ZM19.7764 73.3095C19.7764 73.5851 19.7605 73.8766 19.7287 74.184H12.7645C12.8175 75.0426 13.109 75.7157 13.639 76.2033C14.1796 76.6803 14.8315 76.9188 15.5947 76.9188C16.2201 76.9188 16.7395 76.7757 17.1529 76.4895C17.5769 76.1927 17.8737 75.8005 18.0433 75.3129H19.6015C19.3683 76.1503 18.9019 76.834 18.2023 77.364C17.5027 77.8834 16.6335 78.1431 15.5947 78.1431C14.7679 78.1431 14.0259 77.9576 13.3687 77.5866C12.7221 77.2156 12.2133 76.6909 11.8423 76.0125C11.4713 75.3235 11.2858 74.5285 11.2858 73.6275C11.2858 72.7265 11.466 71.9368 11.8264 71.2584C12.1868 70.58 12.6903 70.0606 13.3369 69.7002C13.9941 69.3292 14.7467 69.1437 15.5947 69.1437C16.4215 69.1437 17.1529 69.3239 17.7889 69.6843C18.4249 70.0447 18.9125 70.5429 19.2517 71.1789C19.6015 71.8043 19.7764 72.5145 19.7764 73.3095ZM18.2818 73.0074C18.2818 72.4562 18.1599 71.9845 17.9161 71.5923C17.6723 71.1895 17.3384 70.8874 16.9144 70.686C16.501 70.474 16.0399 70.368 15.5311 70.368C14.7997 70.368 14.1743 70.6012 13.6549 71.0676C13.1461 71.534 12.8546 72.1806 12.7804 73.0074H18.2818ZM21.1457 73.6275C21.1457 72.7265 21.3259 71.9421 21.6863 71.2743C22.0467 70.5959 22.5449 70.0712 23.1809 69.7002C23.8275 69.3292 24.5642 69.1437 25.391 69.1437C26.4616 69.1437 27.3414 69.4034 28.0304 69.9228C28.73 70.4422 29.1911 71.163 29.4137 72.0852H27.8555C27.7071 71.5552 27.4156 71.1365 26.981 70.8291C26.557 70.5217 26.027 70.368 25.391 70.368C24.5642 70.368 23.8964 70.6542 23.3876 71.2266C22.8788 71.7884 22.6244 72.5887 22.6244 73.6275C22.6244 74.6769 22.8788 75.4878 23.3876 76.0602C23.8964 76.6326 24.5642 76.9188 25.391 76.9188C26.027 76.9188 26.557 76.7704 26.981 76.4736C27.405 76.1768 27.6965 75.7528 27.8555 75.2016H29.4137C29.1805 76.092 28.7141 76.8075 28.0145 77.3481C27.3149 77.8781 26.4404 78.1431 25.391 78.1431C24.5642 78.1431 23.8275 77.9576 23.1809 77.5866C22.5449 77.2156 22.0467 76.6909 21.6863 76.0125C21.3259 75.3341 21.1457 74.5391 21.1457 73.6275ZM35.6691 69.1278C36.3263 69.1278 36.9199 69.2709 37.4499 69.5571C37.9799 69.8327 38.3933 70.2514 38.6901 70.8132C38.9975 71.375 39.1512 72.0587 39.1512 72.8643V78H37.7202V73.071C37.7202 72.2018 37.5029 71.5393 37.0683 71.0835C36.6337 70.6171 36.0401 70.3839 35.2875 70.3839C34.5243 70.3839 33.9148 70.6224 33.459 71.0994C33.0138 71.5764 32.7912 72.2707 32.7912 73.1823V78H31.3443V66.234H32.7912V70.527C33.0774 70.0818 33.4696 69.7373 33.9678 69.4935C34.4766 69.2497 35.0437 69.1278 35.6691 69.1278ZM45.76 69.1278C46.82 69.1278 47.6786 69.4511 48.3358 70.0977C48.993 70.7337 49.3216 71.6559 49.3216 72.8643V78H47.8906V73.071C47.8906 72.2018 47.6733 71.5393 47.2387 71.0835C46.8041 70.6171 46.2105 70.3839 45.4579 70.3839C44.6947 70.3839 44.0852 70.6224 43.6294 71.0994C43.1842 71.5764 42.9616 72.2707 42.9616 73.1823V78H41.5147V69.2868H42.9616V70.527C43.2478 70.0818 43.6347 69.7373 44.1223 69.4935C44.6205 69.2497 45.1664 69.1278 45.76 69.1278ZM55.4852 78.1431C54.669 78.1431 53.927 77.9576 53.2592 77.5866C52.602 77.2156 52.0826 76.6909 51.701 76.0125C51.33 75.3235 51.1445 74.5285 51.1445 73.6275C51.1445 72.7371 51.3353 71.9527 51.7169 71.2743C52.1091 70.5853 52.6391 70.0606 53.3069 69.7002C53.9747 69.3292 54.722 69.1437 55.5488 69.1437C56.3756 69.1437 57.1229 69.3292 57.7907 69.7002C58.4585 70.0606 58.9832 70.58 59.3648 71.2584C59.757 71.9368 59.9531 72.7265 59.9531 73.6275C59.9531 74.5285 59.7517 75.3235 59.3489 76.0125C58.9567 76.6909 58.4214 77.2156 57.743 77.5866C57.0646 77.9576 56.312 78.1431 55.4852 78.1431ZM55.4852 76.8711C56.0046 76.8711 56.4922 76.7492 56.948 76.5054C57.4038 76.2616 57.7695 75.8959 58.0451 75.4083C58.3313 74.9207 58.4744 74.3271 58.4744 73.6275C58.4744 72.9279 58.3366 72.3343 58.061 71.8467C57.7854 71.3591 57.425 70.9987 56.9798 70.7655C56.5346 70.5217 56.0523 70.3998 55.5329 70.3998C55.0029 70.3998 54.5153 70.5217 54.0701 70.7655C53.6355 70.9987 53.2857 71.3591 53.0207 71.8467C52.7557 72.3343 52.6232 72.9279 52.6232 73.6275C52.6232 74.3377 52.7504 74.9366 53.0048 75.4242C53.2698 75.9118 53.6196 76.2775 54.0542 76.5213C54.4888 76.7545 54.9658 76.8711 55.4852 76.8711ZM63.3024 66.234V78H61.8555V66.234H63.3024ZM69.5685 78.1431C68.7523 78.1431 68.0103 77.9576 67.3425 77.5866C66.6853 77.2156 66.1659 76.6909 65.7843 76.0125C65.4133 75.3235 65.2278 74.5285 65.2278 73.6275C65.2278 72.7371 65.4186 71.9527 65.8002 71.2743C66.1924 70.5853 66.7224 70.0606 67.3902 69.7002C68.058 69.3292 68.8053 69.1437 69.6321 69.1437C70.4589 69.1437 71.2062 69.3292 71.874 69.7002C72.5418 70.0606 73.0665 70.58 73.4481 71.2584C73.8403 71.9368 74.0364 72.7265 74.0364 73.6275C74.0364 74.5285 73.835 75.3235 73.4322 76.0125C73.04 76.6909 72.5047 77.2156 71.8263 77.5866C71.1479 77.9576 70.3953 78.1431 69.5685 78.1431ZM69.5685 76.8711C70.0879 76.8711 70.5755 76.7492 71.0313 76.5054C71.4871 76.2616 71.8528 75.8959 72.1284 75.4083C72.4146 74.9207 72.5577 74.3271 72.5577 73.6275C72.5577 72.9279 72.4199 72.3343 72.1443 71.8467C71.8687 71.3591 71.5083 70.9987 71.0631 70.7655C70.6179 70.5217 70.1356 70.3998 69.6162 70.3998C69.0862 70.3998 68.5986 70.5217 68.1534 70.7655C67.7188 70.9987 67.369 71.3591 67.104 71.8467C66.839 72.3343 66.7065 72.9279 66.7065 73.6275C66.7065 74.3377 66.8337 74.9366 67.0881 75.4242C67.3531 75.9118 67.7029 76.2775 68.1375 76.5213C68.5721 76.7545 69.0491 76.8711 69.5685 76.8711ZM79.5323 69.1437C80.2849 69.1437 80.9421 69.308 81.5039 69.6366C82.0763 69.9652 82.5003 70.3786 82.7759 70.8768V69.2868H84.2387V78.1908C84.2387 78.9858 84.0691 79.6907 83.7299 80.3055C83.3907 80.9309 82.9031 81.4185 82.2671 81.7683C81.6417 82.1181 80.9103 82.293 80.0729 82.293C78.9281 82.293 77.9741 82.0227 77.2109 81.4821C76.4477 80.9415 75.9972 80.2048 75.8594 79.272H77.2904C77.4494 79.802 77.778 80.226 78.2762 80.544C78.7744 80.8726 79.3733 81.0369 80.0729 81.0369C80.8679 81.0369 81.5145 80.7878 82.0127 80.2896C82.5215 79.7914 82.7759 79.0918 82.7759 78.1908V76.3623C82.4897 76.8711 82.0657 77.2951 81.5039 77.6343C80.9421 77.9735 80.2849 78.1431 79.5323 78.1431C78.7585 78.1431 78.0536 77.9523 77.4176 77.5707C76.7922 77.1891 76.2993 76.6538 75.9389 75.9648C75.5785 75.2758 75.3983 74.4914 75.3983 73.6116C75.3983 72.7212 75.5785 71.9421 75.9389 71.2743C76.2993 70.5959 76.7922 70.0712 77.4176 69.7002C78.0536 69.3292 78.7585 69.1437 79.5323 69.1437ZM82.7759 73.6275C82.7759 72.9703 82.6434 72.3979 82.3784 71.9103C82.1134 71.4227 81.753 71.0517 81.2972 70.7973C80.852 70.5323 80.3591 70.3998 79.8185 70.3998C79.2779 70.3998 78.785 70.527 78.3398 70.7814C77.8946 71.0358 77.5395 71.4068 77.2745 71.8944C77.0095 72.382 76.877 72.9544 76.877 73.6116C76.877 74.2794 77.0095 74.8624 77.2745 75.3606C77.5395 75.8482 77.8946 76.2245 78.3398 76.4895C78.785 76.7439 79.2779 76.8711 79.8185 76.8711C80.3591 76.8711 80.852 76.7439 81.2972 76.4895C81.753 76.2245 82.1134 75.8482 82.3784 75.3606C82.6434 74.8624 82.7759 74.2847 82.7759 73.6275ZM87.4311 67.8717C87.1555 67.8717 86.9223 67.7763 86.7315 67.5855C86.5407 67.3947 86.4453 67.1615 86.4453 66.8859C86.4453 66.6103 86.5407 66.3771 86.7315 66.1863C86.9223 65.9955 87.1555 65.9001 87.4311 65.9001C87.6961 65.9001 87.9187 65.9955 88.0989 66.1863C88.2897 66.3771 88.3851 66.6103 88.3851 66.8859C88.3851 67.1615 88.2897 67.3947 88.0989 67.5855C87.9187 67.7763 87.6961 67.8717 87.4311 67.8717ZM88.1307 69.2868V78H86.6838V69.2868H88.1307ZM98.5467 73.3095C98.5467 73.5851 98.5308 73.8766 98.499 74.184H91.5348C91.5878 75.0426 91.8793 75.7157 92.4093 76.2033C92.9499 76.6803 93.6018 76.9188 94.365 76.9188C94.9904 76.9188 95.5098 76.7757 95.9232 76.4895C96.3472 76.1927 96.644 75.8005 96.8136 75.3129H98.3718C98.1386 76.1503 97.6722 76.834 96.9726 77.364C96.273 77.8834 95.4038 78.1431 94.365 78.1431C93.5382 78.1431 92.7962 77.9576 92.139 77.5866C91.4924 77.2156 90.9836 76.6909 90.6126 76.0125C90.2416 75.3235 90.0561 74.5285 90.0561 73.6275C90.0561 72.7265 90.2363 71.9368 90.5967 71.2584C90.9571 70.58 91.4606 70.0606 92.1072 69.7002C92.7644 69.3292 93.517 69.1437 94.365 69.1437C95.1918 69.1437 95.9232 69.3239 96.5592 69.6843C97.1952 70.0447 97.6828 70.5429 98.022 71.1789C98.3718 71.8043 98.5467 72.5145 98.5467 73.3095ZM97.0521 73.0074C97.0521 72.4562 96.9302 71.9845 96.6864 71.5923C96.4426 71.1895 96.1087 70.8874 95.6847 70.686C95.2713 70.474 94.8102 70.368 94.3014 70.368C93.57 70.368 92.9446 70.6012 92.4252 71.0676C91.9164 71.534 91.6249 72.1806 91.5507 73.0074H97.0521ZM103.541 78.1431C102.873 78.1431 102.274 78.0318 101.744 77.8092C101.214 77.576 100.796 77.258 100.488 76.8552C100.181 76.4418 100.011 75.9701 99.9795 75.4401H101.474C101.517 75.8747 101.718 76.2298 102.078 76.5054C102.449 76.781 102.932 76.9188 103.525 76.9188C104.076 76.9188 104.511 76.7969 104.829 76.5531C105.147 76.3093 105.306 76.0019 105.306 75.6309C105.306 75.2493 105.136 74.9684 104.797 74.7882C104.458 74.5974 103.933 74.4119 103.223 74.2317C102.577 74.0621 102.047 73.8925 101.633 73.7229C101.23 73.5427 100.881 73.283 100.584 72.9438C100.298 72.594 100.154 72.1382 100.154 71.5764C100.154 71.1312 100.287 70.7231 100.552 70.3521C100.817 69.9811 101.193 69.6896 101.681 69.4776C102.168 69.255 102.725 69.1437 103.35 69.1437C104.315 69.1437 105.094 69.3875 105.688 69.8751C106.281 70.3627 106.599 71.0305 106.642 71.8785H105.195C105.163 71.4227 104.977 71.057 104.638 70.7814C104.31 70.5058 103.864 70.368 103.303 70.368C102.783 70.368 102.37 70.4793 102.062 70.7019C101.755 70.9245 101.601 71.216 101.601 71.5764C101.601 71.8626 101.691 72.1011 101.872 72.2919C102.062 72.4721 102.296 72.6205 102.571 72.7371C102.857 72.8431 103.25 72.965 103.748 73.1028C104.373 73.2724 104.882 73.442 105.274 73.6116C105.666 73.7706 106 74.0144 106.276 74.343C106.562 74.6716 106.711 75.1009 106.721 75.6309C106.721 76.1079 106.589 76.5372 106.324 76.9188C106.059 77.3004 105.682 77.6025 105.195 77.8251C104.718 78.0371 104.167 78.1431 103.541 78.1431Z" fill="#5B8E3E"/>
<path d="M70 39.1168C70.013 49.0346 61.9813 57 51.9773 57C42.0642 57 34.0195 48.9568 34 39.0259C33.9806 29.1665 42.1226 21 51.9773 21C62.0072 21 69.987 29.0173 70 39.1168ZM52.0033 47.1859C56.5835 47.1924 60.2036 43.5859 60.2036 39.013C60.2036 34.4919 56.4797 30.7881 51.9708 30.8335C47.5398 30.8724 43.8548 34.5503 43.8223 38.9546C43.7964 43.4627 47.4879 47.1859 52.0033 47.1924V47.1859Z" fill="url(#paint0_linear_1354_675)"/>
<path d="M15.808 57.364C13.3813 57.364 11.1973 56.948 9.256 56.116C7.31467 55.2493 5.78933 54.036 4.68 52.476C3.57067 50.916 3.016 49.096 3.016 47.016H9.36C9.49867 48.576 10.1053 49.8587 11.18 50.864C12.2893 51.8693 13.832 52.372 15.808 52.372C17.8533 52.372 19.448 51.8867 20.592 50.916C21.736 49.9107 22.308 48.628 22.308 47.068C22.308 45.8547 21.944 44.8667 21.216 44.104C20.5227 43.3413 19.6387 42.752 18.564 42.336C17.524 41.92 16.068 41.4693 14.196 40.984C11.8387 40.36 9.91467 39.736 8.424 39.112C6.968 38.4533 5.72 37.448 4.68 36.096C3.64 34.744 3.12 32.9413 3.12 30.688C3.12 28.608 3.64 26.788 4.68 25.228C5.72 23.668 7.176 22.472 9.048 21.64C10.92 20.808 13.0867 20.392 15.548 20.392C19.0493 20.392 21.9093 21.276 24.128 23.044C26.3813 24.7773 27.6293 27.1693 27.872 30.22H21.32C21.216 28.9027 20.592 27.776 19.448 26.84C18.304 25.904 16.796 25.436 14.924 25.436C13.2253 25.436 11.8387 25.8693 10.764 26.736C9.68933 27.6027 9.152 28.8507 9.152 30.48C9.152 31.5893 9.48133 32.508 10.14 33.236C10.8333 33.9293 11.7 34.484 12.74 34.9C13.78 35.316 15.2013 35.7667 17.004 36.252C19.396 36.9107 21.3373 37.5693 22.828 38.228C24.3533 38.8867 25.636 39.9093 26.676 41.296C27.7507 42.648 28.288 44.468 28.288 46.756C28.288 48.5933 27.7853 50.3267 26.78 51.956C25.8093 53.5853 24.3707 54.9027 22.464 55.908C20.592 56.8787 18.3733 57.364 15.808 57.364Z" fill="#EA4232"/>
<path d="M107.048 20.86L93.476 57H86.612L72.988 20.86H79.332L90.044 50.916L100.808 20.86H107.048Z" fill="#EA4232"/>
<defs>
<linearGradient id="paint0_linear_1354_675" x1="34" y1="39" x2="70" y2="39" gradientUnits="userSpaceOnUse">
<stop stop-color="#FDBE23"/>
<stop offset="1" stop-color="#EA4332"/>
</linearGradient>
</defs>
</svg>
